# xmcd
#
# Track frame offsets:
# 150
# 33827
# 61849
# 148100
# 185966
# 190730
# 244452
# 291959
#
# Disc length: 4392 seconds
#
#
# Revision: 0
# Processed by: cddbd v1.5.1PL2 Copyright (c) Steve Scherf et al.
# Submitted via: FreeRIP 2.944 
#
DISCID=7c112608
DTITLE=Derek and the dominos  - Live at the fillmore - complete two nights edition cd 2
DYEAR=1970
DGENRE=Blues
TTITLE0=presence of the lord
TTITLE1=little wing
TTITLE2=let it rain
TTITLE3=crossroads
TTITLE4=introduction
TTITLE5=got to get better in a little while
TTITLE6=blues power
TTITLE7=have you ever loved a woman
EXTD=
EXTT0=
EXTT1=
EXTT2=
EXTT3=
EXTT4=
EXTT5=
EXTT6=
EXTT7=
PLAYORDER=
